<?xml version="1.0" standalone="no"?>
<!DOCTYPE svg PUBLIC "-//W3C//DTD SVG 20010904//EN"
 "http://www.w3.org/TR/2001/REC-SVG-20010904/DTD/svg10.dtd">
<svg version="1.0" xmlns="http://www.w3.org/2000/svg"
 width="980.000000pt" height="980.000000pt" viewBox="0 0 980.000000 980.000000"
 preserveAspectRatio="xMidYMid meet">
<metadata>
Created by potrace 1.14, written by Peter Selinger 2001-2017
</metadata>
<g transform="translate(0.000000,980.000000) scale(0.100000,-0.100000)"
fill="#000000" stroke="none">
<path d="M4485 9794 c-16 -3 -95 -14 -175 -25 -1266 -178 -2445 -832 -3205
-1779 -588 -733 -935 -1556 -1080 -2560 -23 -161 -25 -204 -25 -525 0 -372 6
-448 56 -735 189 -1079 656 -2001 1379 -2725 749 -751 1732 -1237 2855 -1412
151 -24 198 -27 552 -30 431 -5 493 0 838 62 1066 194 1971 661 2695 1390 667
671 1145 1577 1340 2540 78 385 80 408 80 935 l0 475 -38 190 c-208 1040 -541
1771 -1123 2470 -684 820 -1714 1421 -2828 1650 -352 72 -415 78 -871 80 -231
2 -433 1 -450 -1z m621 -1459 c266 -47 452 -147 681 -368 130 -126 333 -350
333 -367 0 -6 -7 -10 -17 -10 -9 0 -168 -34 -354 -75 -759 -168 -897 -171
-1542 -34 -104 22 -192 39 -196 37 -12 -4 -111 -120 -111 -129 0 -4 95 -62
210 -129 116 -67 210 -125 210 -130 0 -19 -1155 -689 -1167 -676 -2 2 25 91
60 197 232 699 568 1194 1017 1496 142 96 300 160 461 187 115 19 307 19 415
1z m1093 -1035 c56 -8 70 -14 109 -52 83 -81 167 -227 221 -385 21 -62 121
-399 121 -407 0 -3 -93 52 -207 120 -247 149 -429 241 -573 288 -113 37 -285
70 -341 64 l-34 -3 70 -58 c138 -115 305 -238 615 -452 365 -252 582 -413 730
-540 287 -246 546 -559 601 -726 22 -67 24 -90 23 -249 0 -155 -5 -200 -37
-389 -20 -118 -35 -216 -33 -218 2 -2 99 62 216 142 116 81 213 145 215 143
11 -11 90 -315 111 -428 31 -164 43 -427 25 -562 -36 -270 -130 -463 -323
-660 -212 -217 -483 -337 -926 -409 -68 -11 -127 -18 -129 -15 -3 3 40 151 95
328 295 945 375 1349 375 1890 -1 311 -7 339 -120 548 -46 83 -47 84 -55 55
-32 -114 -60 -368 -78 -710 -20 -363 -59 -633 -103 -720 -40 -80 -97 -153
-181 -232 -79 -75 -156 -129 -468 -331 -140 -89 -245 -177 -318 -263 -58 -70
-119 -173 -108 -184 15 -16 328 116 677 286 135 65 246 117 248 115 4 -4 -77
-269 -124 -406 -62 -181 -154 -310 -258 -361 -45 -22 -62 -24 -175 -23 -296 2
-789 105 -1205 252 -302 106 -660 273 -950 442 -178 104 -476 303 -625 418
-226 173 -295 315 -320 659 -5 76 -10 192 -10 258 -1 320 -58 538 -176 673
-26 29 -48 51 -50 49 -8 -7 -64 -867 -64 -974 0 -18 -4 -33 -9 -33 -16 0 -207
196 -294 302 -82 101 -178 232 -230 314 l-26 41 78 119 c390 598 940 1116
1618 1523 378 227 854 443 1274 579 239 78 617 167 779 185 73 8 288 6 349 -3z
m-3053 -18 c-3 -9 -39 -139 -80 -287 -180 -655 -281 -866 -572 -1200 -96 -109
-554 -585 -564 -585 -18 0 -96 256 -136 445 -20 95 -27 160 -31 312 -6 213 7
332 54 472 142 427 559 726 1173 841 130 25 163 25 156 2z m3704 -13 c620
-125 1014 -427 1145 -874 80 -276 50 -653 -85 -1080 -18 -55 -35 -103 -39
-108 -8 -8 -463 463 -578 598 -145 171 -248 324 -325 485 -53 111 -159 433
-243 735 -36 132 -68 248 -72 259 -5 17 -1 18 48 11 30 -4 97 -16 149 -26z
m-4629 -2979 c647 -709 853 -879 1654 -1357 193 -116 381 -230 418 -255 l68
-46 -128 -40 c-244 -78 -311 -93 -434 -99 -64 -3 -133 -3 -153 1 -53 10 -188
128 -351 306 -75 83 -139 150 -140 148 -2 -2 -13 -108 -26 -236 -13 -128 -26
-237 -29 -242 -4 -6 -67 6 -156 30 -388 105 -638 224 -814 387 -348 322 -445
732 -314 1323 24 107 78 297 104 364 l11 30 33 -35 c18 -19 134 -144 257 -279z
m3099 -1919 c213 -40 781 -161 797 -170 18 -10 -208 -264 -336 -377 -239 -213
-464 -330 -700 -364 -132 -20 -374 -8 -486 23 -299 84 -574 293 -899 684 l-27
32 23 5 c13 3 169 36 348 75 567 122 631 131 910 127 180 -3 225 -7 370 -35z"/>
<path d="M4767 6128 c-47 -123 -84 -224 -83 -225 7 -7 456 11 456 18 0 24
-265 429 -280 429 -4 0 -46 -100 -93 -222z"/>
<path d="M3880 5917 c0 -8 111 -473 116 -486 3 -10 67 47 195 175 154 154 186
190 172 196 -22 9 -458 118 -473 118 -5 0 -10 -2 -10 -3z"/>
<path d="M5663 5861 c-128 -31 -234 -59 -237 -62 -3 -3 80 -90 184 -194 127
-127 191 -184 194 -174 3 7 28 113 56 234 28 121 53 228 56 238 3 10 0 17 -8
16 -7 -1 -117 -27 -245 -58z"/>
<path d="M4745 5620 c-278 -74 -458 -239 -545 -499 -56 -166 -52 -316 12 -482
82 -215 246 -369 470 -441 173 -55 310 -49 493 23 173 68 302 186 384 353 59
120 75 191 75 331 1 112 -2 126 -35 222 -45 126 -87 198 -164 278 -184 189
-462 276 -690 215z"/>
<path d="M3730 5061 c-234 -102 -230 -100 -230 -134 0 -45 29 -96 71 -124 21
-14 93 -46 161 -73 68 -26 131 -51 141 -55 16 -7 17 8 17 224 0 127 -1 231 -2
231 -2 0 -73 -31 -158 -69z"/>
<path d="M5910 4895 c0 -129 2 -235 4 -235 23 0 368 167 378 184 15 22 8 74
-15 107 -29 44 -81 72 -192 108 -50 15 -109 38 -133 50 l-42 21 0 -235z"/>
<path d="M3996 4364 c-12 -40 -114 -479 -112 -481 5 -5 496 111 496 117 0 3
-85 90 -189 194 -153 153 -190 185 -195 170z"/>
<path d="M5623 4184 c-92 -75 -178 -146 -191 -159 l-24 -22 262 -66 c216 -54
261 -62 257 -49 -88 317 -122 432 -128 432 -4 0 -83 -61 -176 -136z"/>
<path d="M4683 3886 c2 -6 41 -109 87 -229 l84 -219 18 24 c89 111 268 385
268 409 0 4 -66 10 -147 13 -82 3 -185 8 -231 10 -60 3 -82 1 -79 -8z"/>
</g>
</svg>
